# xmcd CD database file
#
# Track frame offsets:
#	150
#	20437
#	36001
#	55601
#	78094
#
# Disc length: 1350 seconds
#
# Revision: 0
# Processed by: cddbd v1.5.2PL0 Copyright (c) Steve Scherf et al.
# Submitted via: CDex 1.60beta1-cs1
#
DISCID=2b054405
DTITLE=ごにんぐみ - フロム コンビナート
DYEAR=2011
DGENRE=Blues
TTITLE0=ウユニ
TTITLE1=まほろば
TTITLE2=もうすぐ
TTITLE3=冷たい背中
TTITLE4=do・su・e
EXTD=YEAR: 2011
EXTT0=
EXTT1=
EXTT2=
EXTT3=
EXTT4=
PLAYORDER=
